# xmcd
#
# Track frame offsets: 
#        150
#        14437
#        29862
#        46142
#        60272
#        77415
#        110975
#        126120
#        148842
#
# Disc length: 2251 seconds
#
# Revision: 5
# Processed by: cddbd v1.5.1PL2 Copyright (c) Steve Scherf et al.
# Submitted via: ExactAudioCopy v0.95b2
#
DISCID=7a08c909
DTITLE=Various Artist - RCA Victor 80th Anniversary Sampler
DYEAR=1997
DGENRE=Jazz
TTITLE0=Original Dixieland Jazz Band - Livery Stable Blues
TTITLE1=Jelly Roll Morton - Doctor Jazz
TTITLE2=Glenn Miller and His Orchestra - In the Mood
TTITLE3=Dizzy Gillespie - A Night in Tunisia
TTITLE4=Charles Mingus - Tijuana Gift Shop
TTITLE5=Sonny Rollins - Without a Song
TTITLE6=Louis Armstrong - What a Wonderful World
TTITLE7=Marcus Roberts - The Truth Is Spoken Here
TTITLE8=Tom Harrell - Labyrinth
EXTD=
EXTT0=
EXTT1=
EXTT2=
EXTT3=
EXTT4=
EXTT5=
EXTT6=
EXTT7=
EXTT8=
PLAYORDER=
